# xmcd
#
# Track frame offsets:
# 150
# 16328
# 36115
# 53569
# 73722
# 87000
# 107919
# 126679
# 156654
# 180251
# 195811
# 218676
# 239978
#
# Disc length: 3491 seconds
#
#
# Revision: 0
# Processed by: cddbd v1.5.1PL0 Copyright (c) Steve Scherf et al.
# Submitted via: FreeRIP 2.60 
#
DISCID=b30da10d
DTITLE=Various Artist's - Common Thread: The Songs Of The Eagles
DYEAR=1900
DGENRE=Country
TTITLE0=Take It Easy-Travis Tritt
TTITLE1=Peacful Easy Feeling-Little Texas
TTITLE2=Desperado-Clint Black
TTITLE3=Heartache Tonight-John Anderson
TTITLE4=Tequila Sunrise-Alan Jackson
TTITLE5=Take It To The Limit-Suzy Bogguss
TTITLE6=I Can't Tell You Why-Vince Gill
TTITLE7=Lyin Eyes-Diamond Rio
TTITLE8=New Kid In Town-Trisha Yearwood
TTITLE9=Saturday Night-Billy Dean
TTITLE10=Already Gone-Tanya Tucker
TTITLE11=Best Of My Love-Brooks and Dunn
TTITLE12=The Sad Cafe-Lorrie Morgan
EXTD=
EXTT0=
EXTT1=
EXTT2=
EXTT3=
EXTT4=
EXTT5=
EXTT6=
EXTT7=
EXTT8=
EXTT9=
EXTT10=
EXTT11=
EXTT12=
PLAYORDER=
